# xmcd CD database file
# Copyright (C) 1993-1998 Ti Kan
#
# Track frame offsets:
#	187
#	30820
#	50095
#	59595
#	79277
#	93002
#	116912
#	136130
#
# Disc length: 2176 seconds
#
# Revision: 1
# Processed by: cddbd v1.4b41PL1 Copyright (c) Steve Scherf et al.
# Submitted via: NotifyCDPlayer(CDDB) 1.51
#
DISCID=64087e08
DTITLE=Hot Tuna - Splash Down
DYEAR=1900
DGENRE=
TTITLE0=Death Don't Have No Mercy
TTITLE1=I Am The Light
TTITLE2=Embryonic Journey - Police Dog Blues
TTITLE3=Splash Down
TTITLE4=Keep Your Lamps Trimmed and Burning
TTITLE5=I Know You Rider
TTITLE6=Keep On Truckin
TTITLE7=Candyman
EXTD=
EXTT0=
EXTT1=
EXTT2=
EXTT3=
EXTT4=
EXTT5=
EXTT6=
EXTT7=
PLAYORDER=
